# xmcd
#
# Track frame offsets:
#	150
#	13175
#	22087
#	37139
#	69029
#	82899
#	94038
#	106263
#	116294
#	128039
#	149499
#	171849
#	188581
#	210466
#	231774
#
# Disc length: 3382
#
# Revision: 1
# Processed by: cddbd v1.5.1PL0 Copyright (c) Steve Scherf et al.
# Submitted via: dBpowerAMP V4.0
# Normalized: r0:TDELIM( - )
#
DISCID=bf0d340f
DTITLE=Oro Nero - Migliori della nostra vita
DYEAR=1900
DGENRE=Blues
TTITLE0=Ben E King - Stand by me
TTITLE1=Bill Whiters - Ain?t no sunshine
TTITLE2=Asha Phutli - The devil is loose
TTITLE3=The O'Jays - For the Love of money
TTITLE4=Marvin Gaye - I heard it through the grapevine
TTITLE5=Otis Redding - (Sitting on the) Dock of the Bay
TTITLE6=Percy Sledge - When a man loves a woman
TTITLE7=Areatha Franklin - Respect
TTITLE8=The Platters - The great Pretender
TTITLE9=Timmy Thomas - Why can't we live together
TTITLE10=Shirley Bassey - Light my Fire
TTITLE11=The Isley Brothers - Don't let me be lonely tonight
TTITLE12=Ike and Tina Turner - Proud Mary
TTITLE13=Village People - 5 o'cloc in the morning
TTITLE14=Rodney Franklin - The Groove
EXTD=
EXTT0=
EXTT1=
EXTT2=
EXTT3=
EXTT4=
EXTT5=
EXTT6=
EXTT7=
EXTT8=
EXTT9=
EXTT10=
EXTT11=
EXTT12=
EXTT13=
EXTT14=
PLAYORDER=
